<?xml version="1.0" encoding="utf-8"?>
<!-- Generator: Adobe Illustrator 16.0.0, SVG Export Plug-In . SVG Version: 6.00 Build 0)  -->
<!DOCTYPE svg PUBLIC "-//W3C//DTD SVG 1.1//EN" "http://www.w3.org/Graphics/SVG/1.1/DTD/svg11.dtd">
<svg version="1.1" xmlns="http://www.w3.org/2000/svg" xmlns:xlink="http://www.w3.org/1999/xlink" x="0px" y="0px" width="2000px"
	 height="900px" viewBox="-460.625 244.888 2000 900" enable-background="new -460.625 244.888 2000 900" xml:space="preserve">
<g id="Layer_2">
</g>
<g id="Layer_1">
	<g>
		<rect x="-178.333" y="292.351" opacity="0.2" fill="#E0E0E0" width="1435.416" height="807.422"/>
		<path fill="#E0E0E0" d="M-178.333,392.84v-81.795c0-11.621,16.24-21.042,36.277-21.042h1362.861
			c20.037,0,36.277,9.421,36.277,21.042v81.795H-178.333z"/>
		<path fill="#616161" d="M1225.324,435.453c2.898,0,5.249,2.35,5.249,5.249v605.245c0,2.899-2.351,5.25-5.249,5.25l0,0
			c-2.9,0-5.25-2.351-5.25-5.25V440.702C1220.074,437.803,1222.424,435.453,1225.324,435.453L1225.324,435.453z"/>
		<path fill="#FFFFFF" d="M1115.261,353.424c0,8.505-2.313,15.399-5.167,15.399H-94.04c-2.854,0-5.168-6.895-5.168-15.399l0,0
			c0-8.51,2.313-15.404,5.168-15.404h1204.134C1112.948,338.02,1115.261,344.914,1115.261,353.424L1115.261,353.424z"/>
		<circle fill="#616161" cx="1225.324" cy="321.383" r="10.542"/>
		<circle fill="#616161" cx="1193.58" cy="321.383" r="10.542"/>
		<circle fill="#616161" cx="1161.835" cy="321.383" r="10.542"/>
		<path fill="none" stroke="#616161" stroke-width="10" stroke-miterlimit="10" d="M1257.083,1078.73
			c0,11.621-16.24,21.042-36.277,21.042H-142.056c-20.037,0-36.277-9.421-36.277-21.042V313.393
			c0-11.621,16.24-21.042,36.277-21.042h1362.861c20.037,0,36.277,9.421,36.277,21.042V1078.73z"/>
		
			<line fill="none" stroke="#616161" stroke-width="10" stroke-miterlimit="10" x1="-178.333" y1="391.804" x2="1257.083" y2="391.804"/>
	</g>
	<path fill="#616161" d="M843.793,642.649c0,2.898-2.35,5.249-5.248,5.249H642.106c-2.9,0-5.25-2.351-5.25-5.249l0,0
		c0-2.9,2.35-5.25,5.25-5.25h196.438C841.443,637.399,843.793,639.749,843.793,642.649L843.793,642.649z"/>
	<path fill="#616161" d="M843.793,743.926c0,2.898-2.35,5.249-5.248,5.249H642.106c-2.9,0-5.25-2.351-5.25-5.249l0,0
		c0-2.9,2.35-5.25,5.25-5.25h196.438C841.443,738.676,843.793,741.025,843.793,743.926L843.793,743.926z"/>
	<path fill="#616161" d="M887.226,667.399c0,2.898-2.35,5.249-5.248,5.249H642.106c-2.9,0-5.25-2.351-5.25-5.249l0,0
		c0-2.9,2.35-5.25,5.25-5.25h239.871C884.876,662.149,887.226,664.499,887.226,667.399L887.226,667.399z"/>
	<path fill="#616161" d="M887.226,765.673c0,2.898-2.35,5.249-5.248,5.249H642.106c-2.9,0-5.25-2.351-5.25-5.249l0,0
		c0-2.9,2.35-5.25,5.25-5.25h239.871C884.876,760.423,887.226,762.772,887.226,765.673L887.226,765.673z"/>
	<path fill="#616161" d="M435.929,516.041c0,2.899-2.35,5.25-5.248,5.25H-68.492c-2.9,0-5.25-2.351-5.25-5.25l0,0
		c0-2.898,2.35-5.25,5.25-5.25h499.173C433.579,510.791,435.929,513.143,435.929,516.041L435.929,516.041z"/>
	<path fill="#616161" d="M435.929,535.541c0,2.898-2.35,5.249-5.248,5.249H-68.492c-2.9,0-5.25-2.351-5.25-5.249l0,0
		c0-2.9,2.35-5.25,5.25-5.25h499.173C433.579,530.291,435.929,532.641,435.929,535.541L435.929,535.541z"/>
	<path fill="#616161" d="M399.36,555.039c0,2.899-2.025,5.25-4.525,5.25H-69.217c-2.5,0-4.525-2.351-4.525-5.25l0,0
		c0-2.898,2.025-5.25,4.525-5.25h464.052C397.335,549.789,399.36,552.141,399.36,555.039L399.36,555.039z"/>
	<path fill="#616161" d="M435.929,617.714c0,2.898-2.35,5.249-5.248,5.249H-68.492c-2.9,0-5.25-2.351-5.25-5.249l0,0
		c0-2.9,2.35-5.25,5.25-5.25h499.173C433.579,612.464,435.929,614.813,435.929,617.714L435.929,617.714z"/>
	<path fill="#616161" d="M435.929,637.212c0,2.899-2.35,5.25-5.248,5.25H-68.492c-2.9,0-5.25-2.351-5.25-5.25l0,0
		c0-2.898,2.35-5.25,5.25-5.25h499.173C433.579,631.962,435.929,634.313,435.929,637.212L435.929,637.212z"/>
	<path fill="#616161" d="M1111.164,508.043c0,2.898-2.35,5.249-5.248,5.249H636.417c-2.9,0-5.25-2.351-5.25-5.249l0,0
		c0-2.9,2.35-5.25,5.25-5.25h469.499C1108.814,502.793,1111.164,505.143,1111.164,508.043L1111.164,508.043z"/>
	<path fill="#616161" d="M1111.164,537.136c0,2.899-2.35,5.25-5.248,5.25H636.417c-2.9,0-5.25-2.351-5.25-5.25l0,0
		c0-2.898,2.35-5.25,5.25-5.25h469.499C1108.814,531.886,1111.164,534.237,1111.164,537.136L1111.164,537.136z"/>
	<path fill="#616161" d="M1111.164,562.541c0,2.899-2.35,5.25-5.248,5.25H571.929c-2.9,0-5.25-2.351-5.25-5.25l0,0
		c0-2.898,2.35-5.25,5.25-5.25h533.987C1108.814,557.291,1111.164,559.643,1111.164,562.541L1111.164,562.541z"/>
	<path fill="#616161" d="M435.929,656.712c0,2.898-2.35,5.249-5.248,5.249H-68.492c-2.9,0-5.25-2.351-5.25-5.249l0,0
		c0-2.9,2.35-5.25,5.25-5.25h499.173C433.579,651.462,435.929,653.812,435.929,656.712L435.929,656.712z"/>
	<path fill="#616161" d="M399.36,676.21c0,2.899-2.025,5.25-4.525,5.25H-69.217c-2.5,0-4.525-2.351-4.525-5.25l0,0
		c0-2.898,2.025-5.25,4.525-5.25h464.052C397.335,670.96,399.36,673.312,399.36,676.21L399.36,676.21z"/>
	<path fill="#F9F44E" d="M435.929,755.484c0,2.898-2.35,5.249-5.248,5.249H3.901c-2.9,0-5.25-2.351-5.25-5.249l0,0
		c0-2.9,2.35-5.25,5.25-5.25h426.779C433.579,750.234,435.929,752.584,435.929,755.484L435.929,755.484z"/>
	<path fill="#F9F44E" d="M435.929,774.982c0,2.899-2.35,5.25-5.248,5.25H-68.492c-2.9,0-5.25-2.351-5.25-5.25l0,0
		c0-2.898,2.35-5.25,5.25-5.25h499.173C433.579,769.732,435.929,772.084,435.929,774.982L435.929,774.982z"/>
	<path fill="#F9F44E" d="M147.901,794.482c0,2.898-2.35,5.249-5.248,5.249H-68.492c-2.9,0-5.25-2.351-5.25-5.249l0,0
		c0-2.9,2.35-5.25,5.25-5.25h211.146C145.552,789.232,147.901,791.582,147.901,794.482L147.901,794.482z"/>
	<path fill="#616161" d="M-10.099,755.484c0,2.898-2.35,5.249-5.248,5.249h-53.146c-2.9,0-5.25-2.351-5.25-5.249l0,0
		c0-2.9,2.35-5.25,5.25-5.25h53.146C-12.448,750.234-10.099,752.584-10.099,755.484L-10.099,755.484z"/>
	<path fill="#616161" d="M438.553,794.482c0,2.898-2.35,5.249-5.248,5.249H162.151c-2.9,0-5.25-2.351-5.25-5.249l0,0
		c0-2.9,2.35-5.25,5.25-5.25h271.153C436.203,789.232,438.553,791.582,438.553,794.482L438.553,794.482z"/>
	<path fill="#616161" d="M399.36,813.98c0,2.899-2.025,5.25-4.525,5.25H-69.217c-2.5,0-4.525-2.351-4.525-5.25l0,0
		c0-2.898,2.025-5.25,4.525-5.25h464.052C397.335,808.73,399.36,811.082,399.36,813.98L399.36,813.98z"/>
	<path fill="#616161" d="M435.929,901.215c0,2.898-2.35,5.249-5.248,5.249H-68.492c-2.9,0-5.25-2.351-5.25-5.249l0,0
		c0-2.9,2.35-5.25,5.25-5.25h499.173C433.579,895.965,435.929,898.314,435.929,901.215L435.929,901.215z"/>
	<path fill="#616161" d="M435.929,920.713c0,2.899-2.35,5.25-5.248,5.25H-68.492c-2.9,0-5.25-2.351-5.25-5.25l0,0
		c0-2.898,2.35-5.25,5.25-5.25h499.173C433.579,915.463,435.929,917.814,435.929,920.713L435.929,920.713z"/>
	<path fill="#616161" d="M435.929,940.213c0,2.898-2.35,5.249-5.248,5.249H-68.492c-2.9,0-5.25-2.351-5.25-5.249l0,0
		c0-2.9,2.35-5.25,5.25-5.25h499.173C433.579,934.963,435.929,937.313,435.929,940.213L435.929,940.213z"/>
	<path fill="#616161" d="M399.36,959.711c0,2.899-2.025,5.25-4.525,5.25H-69.217c-2.5,0-4.525-2.351-4.525-5.25l0,0
		c0-2.898,2.025-5.25,4.525-5.25h464.052C397.335,954.461,399.36,956.813,399.36,959.711L399.36,959.711z"/>
	<path fill="#E67E22" d="M571.244,541.754c-0.22-0.219-0.22-0.575,0-0.794l19.202-30.468c0.22-0.22,0.575-0.22,0.794,0
		l19.203,30.468c0.22,0.219,0.22,0.575,0,0.794H571.244z"/>
	<path fill="#E0E0E0" d="M1110.438,966.027h23.445c3.851,0,6.973-3.122,6.973-6.974v-23.444L1110.438,966.027z"/>
	<path fill="#FDD09F" d="M493.579,462.586v280.119l-14.747,18.751c-0.259,0.26-0.259,0.68,0,0.939l14.747,16.881v282.664h10V462.586
		H493.579z"/>
	<path fill="none" stroke="#FF8F00" stroke-width="3" stroke-miterlimit="10" d="M1151.294,582.289c0,6.627-5.373,12-12,12H548.292
		c-6.627,0-12-5.373-12-12v-80.703c0-6.627,5.373-12,12-12h591.002c6.627,0,12,5.373,12,12V582.289z"/>
	<path fill="none" stroke="#424242" stroke-miterlimit="10" d="M1140.856,959.054c0,3.852-3.122,6.974-6.973,6.974H543.266
		c-3.852,0-6.974-3.122-6.974-6.974v-82.177c0-3.852,3.122-6.974,6.974-6.974h590.618c3.851,0,6.973,3.122,6.973,6.974V959.054z"/>
	<path fill="#2095F3" d="M962.526,1015.889c0,4.815-3.642,8.718-8.135,8.718H814.811c-4.491,0-8.133-3.902-8.133-8.718v-17.56
		c0-4.815,3.642-8.718,8.133-8.718h139.581c4.493,0,8.135,3.902,8.135,8.718V1015.889z"/>
	<path fill="#E0E0E0" d="M1145.218,1015.889c0,4.815-3.643,8.718-8.134,8.718H997.502c-4.492,0-8.134-3.902-8.134-8.718v-17.56
		c0-4.815,3.642-8.718,8.134-8.718h139.582c4.491,0,8.134,3.902,8.134,8.718V1015.889z"/>
	
		<line opacity="0.2" fill="none" stroke="#424242" stroke-width="3" stroke-miterlimit="10" x1="564.905" y1="700.623" x2="1151.294" y2="700.623"/>
	
		<line opacity="0.2" fill="none" stroke="#424242" stroke-width="3" stroke-miterlimit="10" x1="564.905" y1="809.92" x2="1151.294" y2="809.92"/>
	<g>
		<circle fill="#424242" cx="590.844" cy="656.212" r="25.65"/>
		<g>
			<defs>
				<circle id="SVGID_1_" cx="590.844" cy="656.212" r="25.65"/>
			</defs>
			<clipPath id="SVGID_2_">
				<use xlink:href="#SVGID_1_"  overflow="visible"/>
			</clipPath>
			<g clip-path="url(#SVGID_2_)">
				<path fill="#FFFFFF" stroke="#444444" stroke-width="2" stroke-miterlimit="10" d="M586.075,663.889v5.029l-10.354,2.958
					c-2.339,0.669-3.953,2.808-3.953,5.241v6.107h38.152v-6.107c0-2.435-1.614-4.572-3.953-5.241l-10.354-2.958v-5.029"/>
				<path fill="#FFFFFF" stroke="#444444" stroke-width="2" stroke-linecap="square" stroke-miterlimit="10" d="M590.844,665.512
					L590.844,665.512c-5.268,0-9.538-5.633-9.538-10.9v-2.726c0-5.268,4.271-9.538,9.538-9.538l0,0c5.268,0,9.538,4.271,9.538,9.538
					v2.726C600.382,659.879,596.111,665.512,590.844,665.512z"/>
			</g>
		</g>
	</g>
	<g>
		<circle fill="#424242" cx="590.844" cy="760.423" r="25.65"/>
		<g>
			<defs>
				<circle id="SVGID_3_" cx="590.844" cy="760.423" r="25.65"/>
			</defs>
			<clipPath id="SVGID_4_">
				<use xlink:href="#SVGID_3_"  overflow="visible"/>
			</clipPath>
			<g clip-path="url(#SVGID_4_)">
				<path fill="#FFFFFF" stroke="#444444" stroke-width="2" stroke-miterlimit="10" d="M586.075,768.1v5.029l-10.354,2.958
					c-2.339,0.669-3.953,2.808-3.953,5.241v6.107h38.152v-6.107c0-2.435-1.614-4.572-3.953-5.241l-10.354-2.958V768.1"/>
				<path fill="#FFFFFF" stroke="#444444" stroke-width="2" stroke-linecap="square" stroke-miterlimit="10" d="M590.844,769.723
					L590.844,769.723c-5.268,0-9.538-5.633-9.538-10.9v-2.726c0-5.268,4.271-9.538,9.538-9.538l0,0c5.268,0,9.538,4.271,9.538,9.538
					v2.726C600.382,764.09,596.111,769.723,590.844,769.723z"/>
			</g>
		</g>
	</g>
</g>
<g id="Layer_3">
</g>
</svg>
