<?xml version="1.0" encoding="utf-8"?>
<!-- Generator: Adobe Illustrator 16.0.0, SVG Export Plug-In . SVG Version: 6.00 Build 0)  -->
<!DOCTYPE svg PUBLIC "-//W3C//DTD SVG 1.1//EN" "http://www.w3.org/Graphics/SVG/1.1/DTD/svg11.dtd">
<svg version="1.1" xmlns="http://www.w3.org/2000/svg" xmlns:xlink="http://www.w3.org/1999/xlink" x="0px" y="0px" width="2000px"
	 height="900px" viewBox="-460.625 -740.332 2000 900" enable-background="new -460.625 -740.332 2000 900" xml:space="preserve">
<g id="Layer_2">
</g>
<g id="Layer_1">
</g>
<g id="Layer_3">
	<g>
		<g>
			<rect x="-178.333" y="-692.869" opacity="0.2" fill="#E0E0E0" width="1435.416" height="807.422"/>
			<path fill="#E0E0E0" d="M-178.333-592.38v-81.795c0-11.621,16.24-21.042,36.277-21.042h1362.861
				c20.037,0,36.277,9.421,36.277,21.042v81.795H-178.333z"/>
			<path fill="#616161" d="M1225.324-549.767c2.898,0,5.249,2.35,5.249,5.249V60.728c0,2.899-2.351,5.25-5.249,5.25l0,0
				c-2.9,0-5.25-2.351-5.25-5.25v-605.245C1220.074-547.417,1222.424-549.767,1225.324-549.767L1225.324-549.767z"/>
			<path fill="#FFFFFF" d="M1115.261-631.796c0,8.505-2.313,15.399-5.167,15.399H-94.04c-2.854,0-5.168-6.895-5.168-15.399l0,0
				c0-8.51,2.313-15.404,5.168-15.404h1204.134C1112.948-647.2,1115.261-640.306,1115.261-631.796L1115.261-631.796z"/>
			<circle fill="#616161" cx="1225.324" cy="-663.837" r="10.542"/>
			<circle fill="#616161" cx="1193.58" cy="-663.837" r="10.542"/>
			<circle fill="#616161" cx="1161.835" cy="-663.837" r="10.542"/>
			<path fill="none" stroke="#616161" stroke-width="10" stroke-miterlimit="10" d="M1257.083,93.511
				c0,11.621-16.24,21.042-36.277,21.042H-142.056c-20.037,0-36.277-9.421-36.277-21.042v-765.338
				c0-11.621,16.24-21.042,36.277-21.042h1362.861c20.037,0,36.277,9.421,36.277,21.042V93.511z"/>
			
				<line fill="none" stroke="#616161" stroke-width="10" stroke-miterlimit="10" x1="-178.333" y1="-593.416" x2="1257.083" y2="-593.416"/>
		</g>
		<path fill="#0FACF3" d="M909.569-497.967c0,6.186-2.313,11.2-5.167,11.2h-984.9c-2.854,0-5.168-5.015-5.168-11.2l0,0
			c0-6.188,2.313-11.203,5.168-11.203h984.9C907.257-509.17,909.569-504.155,909.569-497.967L909.569-497.967z"/>
		<path fill="#616161" d="M922.214-459.261c0,2.899-2.35,5.25-5.249,5.25H-83.576c-2.899,0-5.25-2.351-5.25-5.25l0,0
			c0-2.898,2.351-5.25,5.25-5.25H916.965C919.864-464.511,922.214-462.159,922.214-459.261L922.214-459.261z"/>
		<path fill="#616161" d="M922.214-439.761c0,2.898-2.35,5.249-5.249,5.249H-83.576c-2.899,0-5.25-2.351-5.25-5.249l0,0
			c0-2.9,2.351-5.25,5.25-5.25H916.965C919.864-445.011,922.214-442.661,922.214-439.761L922.214-439.761z"/>
		<path fill="#616161" d="M885.646-420.263c0,2.899-2.026,5.25-4.525,5.25H-84.3c-2.5,0-4.526-2.351-4.526-5.25l0,0
			c0-2.898,2.026-5.25,4.526-5.25h965.42C883.619-425.513,885.646-423.161,885.646-420.263L885.646-420.263z"/>
		<path fill="#616161" d="M70.38-353.024c0,2.899-2.026,5.25-4.525,5.25H-84.3c-2.5,0-4.526-2.351-4.526-5.25l0,0
			c0-2.898,2.026-5.25,4.526-5.25H65.854C68.354-358.274,70.38-355.923,70.38-353.024L70.38-353.024z"/>
		<path fill="#616161" d="M755.861-353.024c0,2.899-2.026,5.25-4.525,5.25H601.182c-2.5,0-4.526-2.351-4.526-5.25l0,0
			c0-2.898,2.026-5.25,4.526-5.25h150.154C753.835-358.274,755.861-355.923,755.861-353.024L755.861-353.024z"/>
		<g>
			<path fill="#C0392B" d="M-87.764-261.857c-0.426-0.425-0.426-1.115,0-1.54l37.211-59.041c0.426-0.425,1.115-0.425,1.54,0
				l37.212,59.041c0.426,0.425,0.426,1.115,0,1.54H-87.764z"/>
			<g>
				<path fill="#FFFFFF" d="M-45.522-302.081l-0.877,22.692h-6.765l-0.878-22.692H-45.522z M-45.565-270.205H-54v-5.651h8.435
					V-270.205z"/>
			</g>
		</g>
		<g>
			<path fill="#FFA500" d="M-87.764-125.344c-0.426-0.425-0.426-1.115,0-1.54l37.211-59.041c0.426-0.425,1.115-0.425,1.54,0
				l37.212,59.041c0.426,0.425,0.426,1.115,0,1.54H-87.764z"/>
			<g>
				<path fill="#FFFFFF" d="M-45.522-165.567l-0.877,22.692h-6.765l-0.878-22.692H-45.522z M-45.565-133.691H-54v-5.651h8.435
					V-133.691z"/>
			</g>
		</g>
		<g>
			<path fill="#FFA500" d="M-87.764,11.171c-0.426-0.426-0.426-1.115,0-1.541l37.211-59.041c0.426-0.424,1.115-0.424,1.54,0
				L-11.801,9.63c0.426,0.426,0.426,1.115,0,1.541H-87.764z"/>
			<g>
				<path fill="#FFFFFF" d="M-45.522-29.054L-46.399-6.36h-6.765l-0.878-22.693H-45.522z M-45.565,2.823H-54v-5.652h8.435V2.823z"/>
			</g>
		</g>
		
			<line fill="none" stroke="#616161" stroke-width="4" stroke-miterlimit="10" x1="-85.666" y1="-224.051" x2="1112.678" y2="-224.051"/>
		
			<line fill="none" stroke="#616161" stroke-width="4" stroke-miterlimit="10" x1="-85.666" y1="-87.536" x2="1112.678" y2="-87.536"/>
		
			<line fill="none" stroke="#616161" stroke-width="4" stroke-miterlimit="10" x1="-91.146" y1="48.978" x2="1107.198" y2="48.978"/>
		<path fill="#616161" d="M615.254-276.574c0,6.628-3.392,12-7.575,12h-7.572c-4.184,0-7.575-5.372-7.575-12v-31.467
			c0-6.627,3.392-12,7.575-12h7.572c4.184,0,7.575,5.373,7.575,12V-276.574z"/>
		<path fill="#616161" d="M615.254-140.061c0,6.628-3.392,12-7.575,12h-7.572c-4.184,0-7.575-5.372-7.575-12v-31.467
			c0-6.627,3.392-12,7.575-12h7.572c4.184,0,7.575,5.373,7.575,12V-140.061z"/>
		<path fill="#616161" d="M615.254-3.546c0,6.628-3.392,12-7.575,12h-7.572c-4.184,0-7.575-5.372-7.575-12v-31.467
			c0-6.627,3.392-12,7.575-12h7.572c4.184,0,7.575,5.373,7.575,12V-3.546z"/>
	</g>
</g>
</svg>
